<mxfile host="app.diagrams.net" modified="2023-11-24T09:24:13.823Z" agent="Mozilla/5.0 (Windows NT 10.0; Win64; x64) AppleWebKit/537.36 (KHTML, like Gecko) Chrome/119.0.0.0 Safari/537.36" etag="9l4Uu-BL-VnCiBxhS77X" version="22.1.3" type="github">
  <diagram name="Página-1" id="SN1qlLheyPG5Ix7OW4UN">
    <mxGraphModel dx="1238" dy="3016" grid="1" gridSize="10" guides="1" tooltips="1" connect="1" arrows="1" fold="1" page="1" pageScale="1" pageWidth="827" pageHeight="1169" background="#ffffff" math="0" shadow="1">
      <root>
        <mxCell id="0" />
        <mxCell id="1" parent="0" />
        <mxCell id="_u3MmZW3iTmMYpNk2TSg-1" value="&lt;font style=&quot;font-size: 18px;&quot; face=&quot;Times New Roman&quot;&gt;PRESTACIONES&lt;/font&gt;" style="rounded=1;whiteSpace=wrap;html=1;labelBackgroundColor=none;fillColor=#F5AB50;strokeColor=#909090;fontColor=#1A1A1A;" vertex="1" parent="1">
          <mxGeometry x="635" y="-1260" width="170" height="100" as="geometry" />
        </mxCell>
        <mxCell id="_u3MmZW3iTmMYpNk2TSg-2" value="&lt;font style=&quot;font-size: 14px;&quot; face=&quot;Times New Roman&quot;&gt;CONTRIBUTIVAS&lt;/font&gt;" style="rounded=1;whiteSpace=wrap;html=1;labelBackgroundColor=none;fillColor=#F5AB50;strokeColor=#909090;fontColor=#1A1A1A;" vertex="1" parent="1">
          <mxGeometry x="380" y="-940" width="120" height="80" as="geometry" />
        </mxCell>
        <mxCell id="_u3MmZW3iTmMYpNk2TSg-4" value="&lt;font style=&quot;font-size: 11px;&quot;&gt;PENSIONES DE JUBILACIÓN&lt;/font&gt;" style="rounded=1;whiteSpace=wrap;html=1;labelBackgroundColor=none;fillColor=#F5AB50;strokeColor=#909090;fontColor=#1A1A1A;" vertex="1" parent="1">
          <mxGeometry x="225" y="-760" width="100" height="60" as="geometry" />
        </mxCell>
        <mxCell id="_u3MmZW3iTmMYpNk2TSg-16" value="" style="endArrow=none;html=1;rounded=1;exitX=0.5;exitY=0;exitDx=0;exitDy=0;labelBackgroundColor=none;strokeColor=#182E3E;fontColor=default;" edge="1" parent="1" source="_u3MmZW3iTmMYpNk2TSg-2">
          <mxGeometry width="50" height="50" relative="1" as="geometry">
            <mxPoint x="600" y="-1050" as="sourcePoint" />
            <mxPoint x="720" y="-1160" as="targetPoint" />
            <Array as="points">
              <mxPoint x="720" y="-1160" />
            </Array>
          </mxGeometry>
        </mxCell>
        <mxCell id="_u3MmZW3iTmMYpNk2TSg-18" value="" style="endArrow=none;html=1;rounded=1;entryX=0.5;entryY=0;entryDx=0;entryDy=0;labelBackgroundColor=none;strokeColor=#182E3E;fontColor=default;" edge="1" parent="1" target="_u3MmZW3iTmMYpNk2TSg-19">
          <mxGeometry width="50" height="50" relative="1" as="geometry">
            <mxPoint x="720" y="-1160" as="sourcePoint" />
            <mxPoint x="840" y="-1050" as="targetPoint" />
            <Array as="points" />
          </mxGeometry>
        </mxCell>
        <mxCell id="_u3MmZW3iTmMYpNk2TSg-19" value="&lt;font face=&quot;Times New Roman&quot; style=&quot;font-size: 14px;&quot;&gt;NO CONTRIBUTIVAS&lt;/font&gt;" style="rounded=1;whiteSpace=wrap;html=1;labelBackgroundColor=none;fillColor=#F5AB50;strokeColor=#909090;fontColor=#1A1A1A;" vertex="1" parent="1">
          <mxGeometry x="940" y="-940" width="120" height="80" as="geometry" />
        </mxCell>
        <mxCell id="_u3MmZW3iTmMYpNk2TSg-20" value="" style="endArrow=none;html=1;rounded=1;labelBackgroundColor=none;strokeColor=#182E3E;fontColor=default;" edge="1" parent="1">
          <mxGeometry width="50" height="50" relative="1" as="geometry">
            <mxPoint x="200" y="-760" as="sourcePoint" />
            <mxPoint x="439" y="-860" as="targetPoint" />
          </mxGeometry>
        </mxCell>
        <mxCell id="_u3MmZW3iTmMYpNk2TSg-21" value="" style="endArrow=none;html=1;rounded=1;labelBackgroundColor=none;strokeColor=#182E3E;fontColor=default;" edge="1" parent="1">
          <mxGeometry width="50" height="50" relative="1" as="geometry">
            <mxPoint x="300" y="-760" as="sourcePoint" />
            <mxPoint x="439" y="-860" as="targetPoint" />
          </mxGeometry>
        </mxCell>
        <mxCell id="_u3MmZW3iTmMYpNk2TSg-22" value="" style="endArrow=none;html=1;rounded=1;labelBackgroundColor=none;strokeColor=#182E3E;fontColor=default;" edge="1" parent="1">
          <mxGeometry width="50" height="50" relative="1" as="geometry">
            <mxPoint x="380" y="-760" as="sourcePoint" />
            <mxPoint x="440" y="-860" as="targetPoint" />
          </mxGeometry>
        </mxCell>
        <mxCell id="_u3MmZW3iTmMYpNk2TSg-23" value="" style="endArrow=none;html=1;rounded=1;entryX=0.5;entryY=1;entryDx=0;entryDy=0;labelBackgroundColor=none;strokeColor=#182E3E;fontColor=default;" edge="1" parent="1" target="_u3MmZW3iTmMYpNk2TSg-2">
          <mxGeometry width="50" height="50" relative="1" as="geometry">
            <mxPoint x="500" y="-760" as="sourcePoint" />
            <mxPoint x="490" y="-800" as="targetPoint" />
          </mxGeometry>
        </mxCell>
        <mxCell id="_u3MmZW3iTmMYpNk2TSg-24" value="" style="endArrow=none;html=1;rounded=1;entryX=0.5;entryY=1;entryDx=0;entryDy=0;labelBackgroundColor=none;strokeColor=#182E3E;fontColor=default;" edge="1" parent="1" target="_u3MmZW3iTmMYpNk2TSg-2">
          <mxGeometry width="50" height="50" relative="1" as="geometry">
            <mxPoint x="580" y="-760" as="sourcePoint" />
            <mxPoint x="620" y="-820" as="targetPoint" />
          </mxGeometry>
        </mxCell>
        <mxCell id="_u3MmZW3iTmMYpNk2TSg-25" value="" style="endArrow=none;html=1;rounded=1;labelBackgroundColor=none;strokeColor=#182E3E;fontColor=default;" edge="1" parent="1">
          <mxGeometry width="50" height="50" relative="1" as="geometry">
            <mxPoint x="680" y="-760" as="sourcePoint" />
            <mxPoint x="440" y="-860" as="targetPoint" />
          </mxGeometry>
        </mxCell>
        <mxCell id="_u3MmZW3iTmMYpNk2TSg-26" value="&lt;font style=&quot;font-size: 11px;&quot;&gt;PRESTACIONES POR INCAPACIDAD PERMANENTE&lt;/font&gt;" style="rounded=1;whiteSpace=wrap;html=1;labelBackgroundColor=none;fillColor=#F5AB50;strokeColor=#909090;fontColor=#1A1A1A;" vertex="1" parent="1">
          <mxGeometry x="335" y="-760" width="100" height="60" as="geometry" />
        </mxCell>
        <mxCell id="_u3MmZW3iTmMYpNk2TSg-27" value="&lt;font style=&quot;font-size: 11px;&quot;&gt;PRESTACIONES POR DESEMPLEO&lt;/font&gt;&lt;span id=&quot;docs-internal-guid-49e1480e-7fff-4781-98b6-2acfe4be3718&quot;&gt;&lt;/span&gt;&lt;span id=&quot;docs-internal-guid-9d8ec7dc-7fff-ddeb-47c2-e3805ae331d7&quot;&gt;&lt;/span&gt;" style="rounded=1;whiteSpace=wrap;html=1;labelBackgroundColor=none;fillColor=#F5AB50;strokeColor=#909090;fontColor=#1A1A1A;" vertex="1" parent="1">
          <mxGeometry x="115" y="-760" width="100" height="60" as="geometry" />
        </mxCell>
        <mxCell id="_u3MmZW3iTmMYpNk2TSg-28" value="&lt;font style=&quot;font-size: 11px;&quot;&gt;PRESTACIONES POR MATERNIDAD Y PATERNIDAD&lt;/font&gt;" style="rounded=1;whiteSpace=wrap;html=1;labelBackgroundColor=none;fillColor=#F5AB50;strokeColor=#909090;fontColor=#1A1A1A;" vertex="1" parent="1">
          <mxGeometry x="555" y="-760" width="100" height="60" as="geometry" />
        </mxCell>
        <mxCell id="_u3MmZW3iTmMYpNk2TSg-29" value="&lt;font style=&quot;font-size: 11px;&quot;&gt;PRESTACIONES POR ENFERMEDAD&lt;/font&gt;" style="rounded=1;whiteSpace=wrap;html=1;labelBackgroundColor=none;fillColor=#F5AB50;strokeColor=#909090;fontColor=#1A1A1A;" vertex="1" parent="1">
          <mxGeometry x="665" y="-760" width="100" height="60" as="geometry" />
        </mxCell>
        <mxCell id="_u3MmZW3iTmMYpNk2TSg-30" value="&lt;font style=&quot;font-size: 11px;&quot;&gt;PRESTACIONES POR MUERTE Y SUPERVIVENCIA&lt;/font&gt;" style="rounded=1;whiteSpace=wrap;html=1;labelBackgroundColor=none;fillColor=#F5AB50;strokeColor=#909090;fontColor=#1A1A1A;" vertex="1" parent="1">
          <mxGeometry x="445" y="-760" width="100" height="60" as="geometry" />
        </mxCell>
        <mxCell id="_u3MmZW3iTmMYpNk2TSg-31" value="" style="endArrow=none;html=1;rounded=1;labelBackgroundColor=none;strokeColor=#182E3E;fontColor=default;" edge="1" parent="1">
          <mxGeometry width="50" height="50" relative="1" as="geometry">
            <mxPoint x="910" y="-760" as="sourcePoint" />
            <mxPoint x="1000" y="-860" as="targetPoint" />
          </mxGeometry>
        </mxCell>
        <mxCell id="_u3MmZW3iTmMYpNk2TSg-32" value="" style="endArrow=none;html=1;rounded=1;labelBackgroundColor=none;strokeColor=#182E3E;fontColor=default;" edge="1" parent="1">
          <mxGeometry width="50" height="50" relative="1" as="geometry">
            <mxPoint x="998" y="-760" as="sourcePoint" />
            <mxPoint x="1000" y="-860" as="targetPoint" />
          </mxGeometry>
        </mxCell>
        <mxCell id="_u3MmZW3iTmMYpNk2TSg-34" value="" style="endArrow=none;html=1;rounded=1;labelBackgroundColor=none;strokeColor=#182E3E;fontColor=default;" edge="1" parent="1">
          <mxGeometry width="50" height="50" relative="1" as="geometry">
            <mxPoint x="1000" y="-860" as="sourcePoint" />
            <mxPoint x="1090" y="-760" as="targetPoint" />
          </mxGeometry>
        </mxCell>
        <mxCell id="_u3MmZW3iTmMYpNk2TSg-35" value="&lt;font style=&quot;font-size: 11px;&quot;&gt;PENSIONES DE INVALIDEZ NO CONTRIBUTIVAS&lt;/font&gt;" style="rounded=1;whiteSpace=wrap;html=1;labelBackgroundColor=none;fillColor=#F5AB50;strokeColor=#909090;fontColor=#1A1A1A;" vertex="1" parent="1">
          <mxGeometry x="950" y="-760" width="100" height="60" as="geometry" />
        </mxCell>
        <mxCell id="_u3MmZW3iTmMYpNk2TSg-36" value="&lt;font style=&quot;font-size: 11px;&quot;&gt;ASIGNACIÓN ECONÓMICA POR CADA MENOR DE 18 AÑOS&lt;/font&gt;" style="rounded=1;whiteSpace=wrap;html=1;labelBackgroundColor=none;fillColor=#F5AB50;strokeColor=#909090;fontColor=#1A1A1A;" vertex="1" parent="1">
          <mxGeometry x="1060" y="-760" width="100" height="60" as="geometry" />
        </mxCell>
        <mxCell id="_u3MmZW3iTmMYpNk2TSg-37" value="&lt;font style=&quot;font-size: 11px;&quot;&gt;PENSIONES DE JUBILACION NO CONTRIBUTIVAS&lt;/font&gt;" style="rounded=1;whiteSpace=wrap;html=1;labelBackgroundColor=none;fillColor=#F5AB50;strokeColor=#909090;fontColor=#1A1A1A;" vertex="1" parent="1">
          <mxGeometry x="840" y="-760" width="100" height="60" as="geometry" />
        </mxCell>
      </root>
    </mxGraphModel>
  </diagram>
</mxfile>
